<?xml version="1.0" encoding="utf-8"?>
<!-- Generator: Adobe Illustrator 19.0.0, SVG Export Plug-In . SVG Version: 6.00 Build 0)  -->
<svg version="1.1" id="Layer_1" xmlns="http://www.w3.org/2000/svg" xmlns:xlink="http://www.w3.org/1999/xlink" x="0px" y="0px"
	 width="218px" height="60px" viewBox="-389.1 267.8 218 60" style="enable-background:new -389.1 267.8 218 60;"
	 xml:space="preserve">
<style type="text/css">
	.st0{fill:#EC81B0;}
	.st1{fill:#BA006C;}
	.st2{fill:#E75299;}
	.st3{fill:#5EC5F1;}
	.st4{fill:#0086BF;}
	.st5{fill:#00A5EA;}
	.st6{fill:#FCC900;}
	.st7{fill:#F08D00;}
	.st8{fill:#F4A200;}
	.st9{fill:#7DB613;}
	.st10{fill:#007C2B;}
	.st11{fill:#009736;}
	.st12{fill:#ED7900;}
	.st13{fill:#BB0006;}
	.st14{fill:#E94F00;}
	.st15{fill:#3B3A3B;}
</style>
<title>logo-dark</title>
<desc>Created with Sketch.</desc>
<g id="master">
	<g id="make-handbook-apps_brandind_code" transform="translate(-36.000000, -3504.000000)">
		<g id="logo-dark" transform="translate(36.000000, 3504.000000)">
			<g id="icon-make">
				<g id="Fill-1-_x2B_-Fill-1-Copy-_x2B_-Fill-3">
					<path id="Fill-3" class="st0" d="M-371.1,268.1c-0.7-0.4-1.7-0.4-2.4,0l-14.3,8.7c-0.7,0.4-1.2,1.4-1.2,2.1v17.5
						c0,0.8,0.5,1.7,1.2,2.1l14.3,8.7c0.7,0.4,1.8,0.4,2.4,0l15.1-8.7c0.7-0.4,1.2-1.3,1.2-2.1v-17.5c0-0.8-0.5-1.7-1.2-2.1
						L-371.1,268.1z"/>
					<path id="Fill-1" class="st1" d="M-387.9,278.2c-0.7-0.4-1.2-0.1-1.2,0.7v17.5c0,0.8,0.5,1.7,1.2,2.1l14.7,8.7
						c0.7,0.4,1.2,0.1,1.2-0.7V289c0-0.8-0.5-1.7-1.2-2.1L-387.9,278.2z"/>
					<path id="Fill-1-Copy" class="st2" d="M-356,278.2c0.7-0.4,1.2-0.1,1.2,0.7v17.5c0,0.8-0.5,1.7-1.2,2.1l-14.7,8.7
						c-0.7,0.4-1.2,0.1-1.2-0.7V289c0-0.8,0.5-1.7,1.2-2.1L-356,278.2z"/>
				</g>
				<g id="Fill-1-_x2B_-Fill-1-Copy-_x2B_-Fill-3-Copy-Copy" transform="translate(22.000000, 0.000000)">
					<path id="Fill-3_1_" class="st3" d="M-359.2,268.1c-0.7-0.4-1.8-0.4-2.4,0l-14,8.6c-0.7,0.4-1.2,1.4-1.2,2.1v17.5
						c0,0.8,0.5,1.7,1.2,2.1l14,8.6c0.7,0.4,1.8,0.4,2.4,0l15.5-8.7c0.7-0.4,1.2-1.3,1.2-2.1v-17.5c0-0.8-0.6-1.7-1.2-2.1
						L-359.2,268.1z"/>
					<path id="Fill-1_1_" class="st4" d="M-375.6,278.2c-0.7-0.4-1.2-0.1-1.2,0.7v17.5c0,0.8,0.5,1.7,1.2,2.1l14.7,8.7
						c0.7,0.4,1.2,0.1,1.2-0.7V289c0-0.8-0.5-1.7-1.2-2.1L-375.6,278.2z"/>
					<path id="Fill-1-Copy_1_" class="st5" d="M-343.7,278.2c0.7-0.4,1.2-0.1,1.2,0.7v17.5c0,0.8-0.5,1.7-1.2,2.1l-14.7,8.7
						c-0.7,0.4-1.2,0.1-1.2-0.7V289c0-0.8,0.5-1.7,1.2-2.1L-343.7,278.2z"/>
				</g>
				<g id="Fill-1-_x2B_-Fill-1-Copy-_x2B_-Fill-3-Copy" transform="translate(11.000000, 6.500000)">
					<path id="Fill-3_2_" class="st6" d="M-364.6,271.7c-0.7-0.4-1.7-0.4-2.4,0l-14.7,8.7c-0.7,0.4-1.2,1.3-1.2,2.1V300
						c0,0.8,0.5,1.7,1.2,2.1l14.7,8.7c0.7,0.4,1.7,0.4,2.4,0l14.7-8.7c0.7-0.4,1.2-1.3,1.2-2.1v-17.5c0-0.8-0.5-1.7-1.2-2.1
						L-364.6,271.7z"/>
					<path id="Fill-1_2_" class="st7" d="M-381.8,281.9c-0.7-0.4-1.2-0.1-1.2,0.7V300c0,0.8,0.5,1.7,1.2,2.1l14.7,8.7
						c0.7,0.4,1.2,0.1,1.2-0.7v-17.5c0-0.8-0.5-1.7-1.2-2.1L-381.8,281.9z"/>
					<path id="Fill-1-Copy_2_" class="st8" d="M-349.8,281.9c0.7-0.4,1.2-0.1,1.2,0.7V300c0,0.8-0.5,1.7-1.2,2.1l-14.7,8.7
						c-0.7,0.4-1.2,0.1-1.2-0.7v-17.5c0-0.8,0.5-1.7,1.2-2.1L-349.8,281.9z"/>
				</g>
				<g id="Fill-1-_x2B_-Fill-1-Copy-_x2B_-Fill-3-Copy-Copy-Copy" transform="translate(22.000000, 13.000000)">
					<path id="Fill-3_3_" class="st9" d="M-358.8,275.3c-0.7-0.4-1.7-0.4-2.4,0l-14.3,8.7c-0.7,0.4-1.2,1.4-1.2,2.1v17.5
						c0,0.8,0.5,1.7,1.2,2.1l14.3,8.7c0.7,0.4,1.8,0.4,2.4,0l15.1-8.7c0.7-0.4,1.2-1.3,1.2-2.1v-17.5c0-0.8-0.5-1.7-1.2-2.1
						L-358.8,275.3z"/>
					<path id="Fill-1_3_" class="st10" d="M-375.6,285.5c-0.7-0.4-1.2-0.1-1.2,0.7v17.5c0,0.8,0.5,1.7,1.2,2.1l14.7,8.7
						c0.7,0.4,1.2,0.1,1.2-0.7v-17.5c0-0.8-0.5-1.7-1.2-2.1L-375.6,285.5z"/>
					<path id="Fill-1-Copy_3_" class="st11" d="M-343.7,285.5c0.7-0.4,1.2-0.1,1.2,0.7v17.5c0,0.8-0.5,1.7-1.2,2.1l-14.7,8.7
						c-0.7,0.4-1.2,0.1-1.2-0.7v-17.5c0-0.8,0.5-1.7,1.2-2.1L-343.7,285.5z"/>
				</g>
				<g id="Fill-1-_x2B_-Fill-1-Copy-_x2B_-Fill-3-Copy-Copy-Copy-Copy" transform="translate(0.000000, 13.000000)">
					<path id="Fill-3_4_" class="st12" d="M-371.1,275.3c-0.7-0.4-1.7-0.4-2.4,0l-14.3,8.7c-0.7,0.4-1.2,1.4-1.2,2.1v17.5
						c0,0.8,0.5,1.7,1.2,2.1l14.3,8.7c0.7,0.4,1.8,0.4,2.4,0l15.1-8.7c0.7-0.4,1.2-1.3,1.2-2.1v-17.5c0-0.8-0.5-1.7-1.2-2.1
						L-371.1,275.3z"/>
					<path id="Fill-1_4_" class="st13" d="M-387.9,285.5c-0.7-0.4-1.2-0.1-1.2,0.7v17.5c0,0.8,0.5,1.7,1.2,2.1l14.7,8.7
						c0.7,0.4,1.2,0.1,1.2-0.7v-17.5c0-0.8-0.5-1.7-1.2-2.1L-387.9,285.5z"/>
					<path id="Fill-1-Copy_4_" class="st14" d="M-356,286.3c0.7-0.4,1.2-0.1,1.2,0.7v17c0,0.8-0.5,1.7-1.2,2.1l-14.7,8.5
						c-0.7,0.4-1.2,0.1-1.2-0.7v-17c0-0.8,0.5-1.7,1.2-2.1L-356,286.3z"/>
				</g>
			</g>
			<path id="Make-500" class="st15" d="M-295.5,316.6c-0.1,1.3,0.6,2,1.9,2h1.9c1.2,0,1.8-0.7,1.9-1.9l1.9-24.5
				c0.2-2.6,0.1-6.3,0.1-6.3h0.1c0,0,1.4,4,2.2,6.3l7.7,17.3c0.4,1.1,1.1,1.5,2.2,1.5h1.9c1.1,0,1.8-0.5,2.2-1.5l7.7-17.3
				c0.9-2.3,2.2-6.2,2.2-6.2h0.1c0,0-0.1,3.6,0.1,6.2l1.9,24.5c0.1,1.2,0.8,1.9,2,1.9h1.9c1.3,0,1.9-0.7,1.9-2l-3.1-38.1
				c-0.1-1.2-0.8-1.8-2-1.8h-2.6c-1.1,0-1.8,0.5-2.2,1.5l-9,21.1c-0.9,2.3-2,5.6-2,5.6h-0.1c0,0-1.1-3.3-2.1-5.6l-9-21.1
				c-0.4-1.1-1.1-1.5-2.2-1.5h-2.6c-1.2,0-1.9,0.7-2,1.8L-295.5,316.6L-295.5,316.6z M-251.1,310.5c0,5.6,4.8,8.9,10,8.9
				c6.9,0,9.7-6.3,9.7-6.3h0.1c0,0-0.2,0.7-0.2,1.8v1.8c0,1.3,0.7,2,1.9,2h1.5c1.2,0,1.9-0.7,1.9-2v-17c0-7.6-4.3-11.8-11.7-11.8
				c-4.5,0-7.9,1.5-9.7,2.6c-1.1,0.6-1.2,1.5-0.6,2.7l0.5,0.8c0.6,1.1,1.5,1.2,2.6,0.7c1.4-0.8,3.8-1.9,6.7-1.9
				c3.7,0,6.5,1.7,6.5,6.6v0.8h-1.5C-239.5,300.1-251.1,301.1-251.1,310.5L-251.1,310.5L-251.1,310.5z M-245.3,310
				c0-5.7,7.9-6.1,12.1-6.1h1.5v1.3c0,4.5-3.1,9.6-8.1,9.6C-243.5,314.8-245.3,312.4-245.3,310L-245.3,310L-245.3,310z
				 M-222.1,316.7c0,1.3,0.6,2,1.9,2h1.8c1.2,0,1.9-0.7,1.9-2v-12.1h4.4l8.1,12.7c0.5,1,1.2,1.4,2.3,1.4h2.4c1.6,0,2.1-1,1.3-2.4
				l-9.5-14.3v-0.1l8.2-10.9c0.9-1.3,0.4-2.4-1.2-2.4h-2.2c-1.1,0-1.8,0.4-2.3,1.2l-7.2,9.7h-4.3v-20.9c0-1.3-0.6-2-1.9-2h-1.8
				c-1.3,0-1.9,0.7-1.9,2V316.7L-222.1,316.7z M-198.9,303.6c0,8.9,6.4,15.7,15.8,15.7c4.8,0,8.3-2,10.1-3.2c1-0.6,1.2-1.6,0.6-2.6
				l-0.5-0.9c-0.6-1.1-1.5-1.2-2.6-0.7c-1.4,1-3.9,2.4-7.1,2.4c-5.3,0-10-3.6-10.3-10.2h19.9c1.2,0,2-1,2-2
				c0-8.4-4.6-14.3-12.8-14.3C-192.5,287.9-198.9,294.1-198.9,303.6L-198.9,303.6L-198.9,303.6z M-192.8,300.4c0.8-5,4.4-8,8.7-8
				c3.9,0,7.1,2.7,7.2,8H-192.8L-192.8,300.4z"/>
		</g>
	</g>
</g>
</svg>
